<svg width="15.892" height="16" fill="none" xmlns="http://www.w3.org/2000/svg"><defs><clipPath id="a"><rect rx="-.5" width="14.892" height="15" transform="translate(.5 .5)" fill="#fff" fill-opacity="0"/></clipPath></defs><rect rx="-.5" width="14.892" height="15" transform="translate(.5 .5)" fill="none"/><g clip-path="url(#a)"><path d="M14.25 4.74c.01.14.01.28.01.42 0 4.34-3.27 9.33-9.26 9.33-1.85 0-3.56-.54-5-1.47.26.03.51.04.78.04 1.52 0 2.93-.52 4.05-1.4a3.255 3.255 0 0 1-3.05-2.27c.2.03.4.05.62.05.29 0 .58-.04.85-.12A3.265 3.265 0 0 1 .64 6.11v-.04c.43.24.94.39 1.47.41A3.295 3.295 0 0 1 .66 3.75c0-.61.16-1.17.44-1.65a9.253 9.253 0 0 0 6.72 3.43c-.05-.25-.08-.5-.08-.75C7.74 2.97 9.19 1.5 11 1.5c.93 0 1.78.39 2.38 1.03.73-.14 1.44-.41 2.06-.79-.24.76-.75 1.4-1.43 1.81.66-.07 1.29-.26 1.88-.51-.45.65-1 1.23-1.64 1.7Z" fill="#000"/></g></svg>