<svg width="32" height="32" fill="none" xmlns="http://www.w3.org/2000/svg"><path d="M31.664 0H.213v32h31.45V0Z" fill="#fff"/><g clip-path="url(#a)"><path d="M22.418 12.741c.01.142.01.284.01.427 0 4.335-3.277 9.33-9.267 9.33a9.16 9.16 0 0 1-5.002-1.473c.262.03.515.04.787.04a6.495 6.495 0 0 0 4.043-1.4 3.266 3.266 0 0 1-3.045-2.274c.202.03.403.05.615.05.293 0 .585-.04.857-.111a3.274 3.274 0 0 1-2.611-3.218v-.041c.433.244.937.396 1.472.416a3.283 3.283 0 0 1-1.452-2.73c0-.61.161-1.168.444-1.655a9.238 9.238 0 0 0 6.715 3.43 3.726 3.726 0 0 1-.08-.75c0-1.807 1.452-3.28 3.257-3.28a3.24 3.24 0 0 1 2.38 1.036 6.385 6.385 0 0 0 2.067-.792 3.266 3.266 0 0 1-1.432 1.807 6.499 6.499 0 0 0 1.876-.507 7.03 7.03 0 0 1-1.634 1.695Z" fill="#000"/></g><defs><clipPath id="a"><path fill="#fff" transform="translate(8.16 8)" d="M0 0h15.892v16H0z"/></clipPath></defs></svg>