<svg width="47.023" height="34.927" fill="none" xmlns="http://www.w3.org/2000/svg"><path d="M42.37 8.53a4.606 4.606 0 0 0-4.65 4.53c.01.64.15 1.28.42 1.86.27.58.66 1.09 1.14 1.51l-5.86 2.05-8.34-9.68c.9-.3 1.68-.87 2.24-1.63.55-.76.85-1.68.86-2.63a4.615 4.615 0 0 0-1.39-3.22A4.652 4.652 0 0 0 23.54 0c-1.22 0-2.38.47-3.25 1.32-.87.85-1.37 2.01-1.4 3.22.01.94.31 1.85.86 2.61a4.53 4.53 0 0 0 2.19 1.64l-8.35 9.7-5.86-2.06c.49-.41.88-.93 1.15-1.51.26-.58.4-1.21.41-1.85.02-.88-.21-1.75-.65-2.5a4.659 4.659 0 0 0-6.82-1.32c-.7.54-1.23 1.26-1.53 2.08-.31.82-.38 1.71-.2 2.57.18.86.6 1.65 1.21 2.28.61.63 1.39 1.07 2.24 1.28v12.29c.01.08.03.16.05.24-.03.13-.05.26-.05.39 0 4.41 17.92 4.54 19.96 4.54 2.05 0 19.97-.13 19.97-4.54 0-.13-.02-.26-.05-.39.02-.08.04-.16.05-.24V17.46a4.502 4.502 0 0 0 3.51-4.96 4.507 4.507 0 0 0-1.53-2.88 4.563 4.563 0 0 0-3.08-1.09ZM21.15 4.55c-.01-.48.12-.94.37-1.34.26-.4.63-.72 1.06-.91.44-.19.92-.24 1.39-.16.46.09.89.31 1.23.64.34.33.57.76.67 1.22.1.47.05.95-.12 1.39-.18.44-.49.81-.88 1.08-.4.26-.86.4-1.33.4a2.34 2.34 0 0 1-1.68-.67c-.44-.43-.7-1.03-.71-1.65Zm-7.59 16.27a1.145 1.145 0 0 0 1.25-.33l8.7-10.1 8.7 10.1a1.117 1.117 0 0 0 1.24.33l7.76-2.72v9.94c-4.89-2.13-16.11-2.2-17.7-2.2-1.59 0-12.82.07-17.7 2.2V18.1l7.75 2.72Zm9.94 11.89c-8.7 0-14.25-1.01-16.55-1.86-.35-.12-.69-.28-1-.47.72-.53 3.06-1.24 6.96-1.74 7.04-.8 14.14-.8 21.18 0 3.9.5 6.24 1.21 6.96 1.74-.31.19-.64.35-.99.47-2.3.85-7.85 1.86-16.56 1.86ZM2.26 13.06c-.01-.47.12-.94.37-1.34.26-.4.63-.71 1.06-.9.43-.19.92-.24 1.38-.16.47.09.9.31 1.24.64.34.33.57.76.67 1.22.09.47.05.95-.13 1.39a2.38 2.38 0 0 1-2.21 1.48c-.62.01-1.23-.23-1.67-.67-.45-.43-.71-1.03-.71-1.66Zm40.11 2.33c-.46-.01-.9-.15-1.28-.42a2.38 2.38 0 0 1-.83-1.05 2.34 2.34 0 0 1 .54-2.52c.33-.32.74-.54 1.19-.62.45-.09.92-.04 1.34.14.42.18.78.47 1.04.86.25.38.39.83.39 1.28-.01.63-.27 1.22-.72 1.66-.44.44-1.05.68-1.67.67Z" fill="#F16D7F"/></svg>