<svg width="32" height="32" fill="none" xmlns="http://www.w3.org/2000/svg"><path d="M31.926 0H.476v32h31.45V0Z" fill="#fff"/><g clip-path="url(#a)"><path d="M16.74 8.203c-3.184 0-6.332 2.138-6.332 5.597 0 2.2 1.23 3.45 1.974 3.45.308 0 .484-.863.484-1.106 0-.29-.735-.91-.735-2.119 0-2.513 1.9-4.294 4.358-4.294 2.114 0 3.678 1.21 3.678 3.431 0 1.66-.661 4.772-2.803 4.772-.773 0-1.434-.562-1.434-1.368 0-1.182.82-2.325.82-3.544 0-2.069-2.915-1.694-2.915.806 0 .525.065 1.106.298 1.585-.428 1.856-1.304 4.621-1.304 6.534 0 .59.084 1.172.14 1.762.105.12.053.107.214.047 1.564-2.156 1.509-2.578 2.216-5.4.382.731 1.37 1.125 2.151 1.125 3.297 0 4.777-3.234 4.777-6.15 0-3.103-2.663-5.128-5.587-5.128Z" fill="#000"/></g><defs><clipPath id="a"><path fill="#fff" transform="translate(10.408 8)" d="M0 0h11.919v16H0z"/></clipPath></defs></svg>