<svg width="39.986" height="39.924" fill="none" xmlns="http://www.w3.org/2000/svg"><path d="m19.99 37.02-3.47 2.9L14.23 36l-4.24 1.51-.82-4.48-4.49-.04.73-4.5-4.21-1.6 2.21-3.97L0 19.95l3.41-2.96-2.21-3.97 4.21-1.6-.74-4.49 4.5-.05.82-4.48 4.24 1.51L16.52 0l3.47 2.89L23.46 0l2.29 3.92 4.24-1.52.82 4.48 4.49.05-.73 4.49 4.21 1.61-2.21 3.96 3.41 2.97-3.41 2.96 2.21 3.97-4.21 1.6.73 4.49-4.49.05-.82 4.48L25.75 36l-2.29 3.92-3.47-2.9Zm1.21-1.48 1.76 1.47 1.16-1.99.79-1.36 1.47.52 2.15.77.42-2.27.28-1.56 1.56-.01 2.28-.02-.37-2.29-.25-1.55 1.46-.56 2.13-.81-1.12-2.01-.77-1.38 1.19-1.02 1.73-1.51-1.73-1.5-1.18-1.03.76-1.38 1.12-2.01-2.13-.81-1.46-.55.25-1.56.38-2.29-2.29-.02-1.56-.01-.28-1.56-.42-2.27-2.15.77-1.47.52-.79-1.36-1.16-1.99-1.76 1.47-1.21 1.01-1.2-1.01-1.76-1.47-1.17 1.99-.79 1.36-1.47-.53-2.15-.76-.42 2.27-.28 1.56-1.56.01-2.28.02.37 2.28.25 1.56-1.45.56-2.14.81 1.12 2.01.77 1.37-1.18 1.03-1.74 1.51 1.73 1.51 1.19 1.03-.77 1.37-1.12 2.01 2.13.81 1.46.56-.25 1.56-.37 2.28 2.28.02 1.56.02.28 1.55.42 2.28 2.15-.77 1.47-.52.79 1.35 1.17 1.99 1.76-1.47 1.2-1 1.21 1Zm.11-12.52c0-2.93 1.57-4.56 3.46-4.56 2.01 0 3.3 1.56 3.3 4.33 0 3.06-1.58 4.58-3.41 4.58-1.78 0-3.33-1.45-3.35-4.35Zm1.52-.09c-.02 1.85.69 3.25 1.88 3.25 1.27 0 1.85-1.38 1.85-3.3 0-1.76-.51-3.23-1.85-3.23-1.21-.01-1.88 1.45-1.88 3.28Zm-7.64 4.4 8.41-14.72h1.24l-8.42 14.72h-1.23Zm-3.22-10.34c0-2.9 1.57-4.54 3.46-4.54 2 0 3.33 1.57 3.33 4.34 0 3.05-1.59 4.57-3.44 4.57-1.78 0-3.32-1.45-3.35-4.37Zm1.55-.07c-.05 1.85.64 3.26 1.85 3.26 1.27 0 1.85-1.39 1.85-3.3 0-1.77-.51-3.24-1.85-3.24-1.21 0-1.85 1.45-1.85 3.28Z" fill="#F16D7F"/></svg>