<svg width="44.989" height="31.935" fill="none" xmlns="http://www.w3.org/2000/svg"><path d="M30.25 27.24H14.78a5.57 5.57 0 0 1-1.89 3.36 5.568 5.568 0 0 1-7.22 0 5.556 5.556 0 0 1-1.88-3.36H1.85c-.49-.01-.97-.2-1.31-.56-.35-.35-.55-.82-.54-1.32V1.87C-.01 1.38.19.9.54.55.88.2 1.36 0 1.85 0H27.4a1.862 1.862 0 0 1 1.86 1.87v1.91h7.12c.08 0 .16.01.24.03 2.3.2 3.46 1.4 4.68 3.46l3.55 6.09c.09.15.13.31.13.48V26.3c.01.25-.09.48-.27.66-.17.18-.41.28-.65.28h-2.82c-.21 1.3-.87 2.5-1.88 3.36a5.568 5.568 0 0 1-7.22 0 5.597 5.597 0 0 1-1.89-3.36Zm1.78-.94c.01.73.23 1.45.65 2.05.41.61.99 1.08 1.67 1.35.68.28 1.43.35 2.14.2a3.78 3.78 0 0 0 1.9-1.03c.51-.52.86-1.18 1-1.9s.07-1.46-.22-2.14c-.28-.68-.75-1.26-1.36-1.66-.61-.41-1.33-.63-2.06-.63-.99.01-1.94.41-2.64 1.11-.69.71-1.08 1.66-1.08 2.65Zm-26.46 0a3.699 3.699 0 0 0 2.32 3.4c.68.28 1.42.35 2.14.2a3.71 3.71 0 0 0 1.89-1.03c.52-.52.87-1.18 1.01-1.9s.06-1.46-.22-2.14a3.65 3.65 0 0 0-1.37-1.66c-.61-.41-1.32-.63-2.06-.63-.99.01-1.94.41-2.63 1.11a3.72 3.72 0 0 0-1.08 2.65Zm35.67-.94h1.89v-5.62h-2.74c-.12 0-.24-.02-.36-.07-.11-.05-.21-.12-.3-.2a.919.919 0 0 1-.2-.31.857.857 0 0 1-.07-.36v-1.84c0-.72.28-1.42.77-1.94h-6.38c-.08 0-.15-.01-.23-.03-.7-.06-1.36-.39-1.83-.91-.48-.52-.74-1.21-.74-1.91v-4.7c0-.13.02-.25.07-.36.04-.11.11-.22.2-.3.08-.09.19-.16.3-.21.11-.05.23-.07.36-.07h6.48c-.34-.32-.75-.56-1.2-.72-.44-.15-.91-.2-1.38-.16h-6.62v19.71h.99c.21-1.31.88-2.5 1.88-3.36a5.575 5.575 0 0 1 7.23 0c1.01.86 1.67 2.05 1.88 3.36Zm-26.46 0H27.4V1.87H1.85v23.49h1.94a5.556 5.556 0 0 1 5.49-4.69c1.33 0 2.61.47 3.61 1.33a5.57 5.57 0 0 1 1.89 3.36Zm26.54-8.4v.91h1.81v-1.85h-.88c-.25 0-.49.1-.66.28-.17.17-.27.41-.27.66Zm-8.42-4.79c0 .25.1.49.28.67.18.18.42.29.67.29.06 0 .13 0 .19.02h8.53L39.8 8.41h-6.9v3.76ZM33 26.3c-.01-.73.28-1.44.8-1.96.51-.52 1.21-.81 1.95-.82.24 0 .48.1.66.28.18.17.27.41.27.66 0 .25-.09.49-.27.67-.18.17-.42.27-.66.27-.18 0-.36.05-.51.15a.916.916 0 0 0-.39.92c.04.18.12.34.25.46.12.13.28.22.46.25.17.04.36.02.52-.05a.89.89 0 0 0 .56-.83c0-.25.1-.48.27-.66a.933.933 0 0 1 1.31 0c.18.18.28.41.28.66 0 .73-.29 1.43-.81 1.94-.52.52-1.22.81-1.94.81-.73 0-1.43-.29-1.95-.81-.52-.51-.8-1.21-.8-1.94Zm-26.47 0c0-.73.29-1.44.8-1.96.52-.52 1.22-.81 1.95-.82a.938.938 0 0 1 .94.94c0 .25-.1.49-.27.67a.98.98 0 0 1-.67.27.89.89 0 0 0-.5.15c-.15.1-.27.24-.34.4-.06.16-.08.35-.05.52.03.18.12.34.24.46.13.13.29.22.47.25.17.04.35.02.52-.05a.89.89 0 0 0 .55-.83c0-.25.1-.48.28-.66.17-.17.41-.27.65-.27.25 0 .48.1.66.27.17.18.27.41.27.66a2.747 2.747 0 0 1-2.75 2.75c-.73 0-1.43-.29-1.94-.81-.52-.51-.81-1.21-.81-1.94ZM4.67 5.65a.93.93 0 0 1-.66-.27.956.956 0 0 1-.27-.66c0-.25.1-.49.27-.67.18-.17.42-.27.66-.27h19.91c.24 0 .48.1.66.27.17.18.27.42.27.67 0 .25-.1.48-.27.66a.93.93 0 0 1-.66.27H4.67Z" fill="#F16D7F"/></svg>